Coordinates
version=1
nRows=16
nColumns=22
inDegrees=yes

Units are S.I. units (second, meters, Newtons, ...)
If the header above contains a line with 'inDegrees', this indicates whether rotational values are in degrees (yes) or radians (no).

endheader
time	pelvis_tilt	pelvis_list	pelvis_rotation	pelvis_tx	pelvis_ty	pelvis_tz	hip_flexion_r	hip_adduction_r	hip_rotation_r	knee_angle_r	ankle_angle_r	subtalar_angle_r	hip_flexion_l	hip_adduction_l	hip_rotation_l	knee_angle_l	ankle_angle_l	subtalar_angle_l	lumbar_extension	lumbar_bending	lumbar_rotation
      1.17000000	      0.02871113	     -0.77787616	    -30.66054499	     -0.99161372	      0.90627351	     -0.42179474	     -3.38235033	     -1.72371595	     -2.50156082	     -6.14034363	     16.52815912	      3.35559957	      1.68214234	     -0.95437184	    -12.89390765	    -18.02670253	     17.30742588	     -3.82625707	     -7.33079027	     -2.27718759	      5.15185270
      1.18000000	      0.03914167	     -0.74460862	    -30.63991381	     -0.99070384	      0.90617236	     -0.42282660	     -3.18396026	     -1.84794470	     -2.49916561	     -6.52555007	     16.69792177	      3.34905043	      1.69168074	     -0.82203083	    -12.83626101	    -18.05809591	     17.33103658	     -3.93615940	     -7.44186875	     -2.31912830	      5.19396516
      1.19000000	      0.05443472	     -0.74114626	    -30.62789366	     -0.98975815	      0.90609611	     -0.42386518	     -2.97596874	     -1.94919537	     -2.48814783	     -6.96790908	     16.83858542	      3.33913941	      1.66541277	     -0.71074454	    -12.77481201	    -18.06764610	     17.37251474	     -4.00784207	     -7.57584132	     -2.33108083	      5.24858578
      1.20000000	      0.07216922	     -0.72968082	    -30.62379935	     -0.98881647	      0.90600427	     -0.42494567	     -2.73093099	     -2.06313998	     -2.46017085	     -7.46768695	     17.00330361	      3.32657688	      1.64795018	     -0.58789956	    -12.71120786	    -18.08727268	     17.40941958	     -4.07518011	     -7.71817378	     -2.35149118	      5.30718427
      1.21000000	      0.09230048	     -0.72189455	    -30.62431791	     -0.98786052	      0.90590783	     -0.42603782	     -2.45024985	     -2.17618607	     -2.41486100	     -8.04021496	     17.17271426	      3.30636890	      1.62751927	     -0.46666312	    -12.64735956	    -18.11139726	     17.45017292	     -4.13371908	     -7.86691864	     -2.37164222	      5.37503486
      1.22000000	      0.10973037	     -0.70571650	    -30.63737049	     -0.98692451	      0.90579121	     -0.42716579	     -2.11214377	     -2.29835300	     -2.34303033	     -8.69401552	     17.35663036	      3.27227624	      1.62134729	     -0.33697221	    -12.58691944	    -18.14607596	     17.48964997	     -4.19361041	     -8.02040985	     -2.39585999	      5.44607936
      1.23000000	      0.12563440	     -0.68834899	    -30.65881386	     -0.98599570	      0.90566477	     -0.42830046	     -1.71918748	     -2.42043942	     -2.24195380	     -9.44017205	     17.53912931	      3.21766132	      1.62158153	     -0.20756863	    -12.52900279	    -18.18827585	     17.53131807	     -4.25155686	     -8.17632188	     -2.42266549	      5.52242816
      1.24000000	      0.14241113	     -0.66341008	    -30.69096141	     -0.98508367	      0.90552696	     -0.42943838	     -1.26329309	     -2.54806134	     -2.10698205	    -10.28882625	     17.72381688	      3.13781931	      1.63001438	     -0.07176113	    -12.47946616	    -18.23894606	     17.57639629	     -4.30724276	     -8.33380286	     -2.46004410	      5.60259894
      1.25000000	      0.15187840	     -0.63722004	    -30.74156963	     -0.98420898	      0.90538151	     -0.43060514	     -0.73171589	     -2.67244827	     -1.93362813	    -11.24687794	     17.89155629	      3.02299811	      1.64852022	      0.06424749	    -12.43266179	    -18.28861445	     17.61970286	     -4.36601857	     -8.49777912	     -2.48764664	      5.68355501
      1.26000000	      0.16234694	     -0.60680174	    -30.80566054	     -0.98335346	      0.90523560	     -0.43175310	     -0.13163420	     -2.79474541	     -1.72435398	    -12.32132197	     18.04557457	      2.87222527	      1.66620836	      0.20323267	    -12.40102139	    -18.33568529	     17.66724464	     -4.42606324	     -8.66334397	     -2.52306758	      5.76530329
      1.27000000	      0.13416302	     -0.57657706	    -30.88583549	     -0.98257144	      0.90505305	     -0.43289763	      0.57920201	     -2.88365610	     -1.45438905	    -13.51714972	     18.16927840	      2.62679429	      1.73186401	      0.31858073	    -12.36287410	    -18.40036002	     17.68806454	     -4.51659180	     -8.80242173	     -2.53696776	      5.87120994
      1.28000000	      0.15248171	     -0.54932764	    -30.98546183	     -0.98177641	      0.90494072	     -0.43399868	      1.31432821	     -2.98878075	     -1.19135062	    -14.83533976	     18.27362717	      2.38674613	      1.72485439	      0.45914212	    -12.37372022	    -18.42123880	     17.74046133	     -4.58049435	     -8.99314201	     -2.57476719	      5.95272634
      1.29000000	      0.13121584	     -0.52969153	    -31.09813365	     -0.98101224	      0.90480741	     -0.43505626	      2.15740650	     -3.05183252	     -0.92614276	    -16.28238807	     18.30483172	      2.00255693	      1.74667767	      0.56559507	    -12.41571393	    -18.43673702	     17.80692854	     -4.67479643	     -9.15057536	     -2.58001240	      6.02223986
      1.30000000	      0.13885065	     -0.51808531	    -31.23649824	     -0.98026368	      0.90474810	     -0.43604848	      3.04070741	     -3.11073013	     -0.65651566	    -17.85153893	     18.31340160	      1.69855457	      1.71177830	      0.68498574	    -12.47999845	    -18.41077598	     17.83504002	     -4.73603509	     -9.34873781	     -2.59688220	      6.10504493
      1.31000000	      0.17898782	     -0.51454208	    -31.39417351	     -0.97950400	      0.90476498	     -0.43696194	      3.95788775	     -3.16811373	     -0.39989161	    -19.54157506	     18.30222779	      1.45913540	      1.61321219	      0.82015771	    -12.55643557	    -18.33832946	     17.85313886	     -4.77466655	     -9.58439071	     -2.62840848	      6.18395878
      1.32000000	      0.14619285	     -0.52525575	    -31.55168743	     -0.97875021	      0.90473536	     -0.43780863	      5.00408300	     -3.15828596	     -0.19392057	    -21.35196676	     18.17633907	      1.08135575	      1.58467362	      0.88995240	    -12.66822103	    -18.28962425	     17.87147350	     -4.84612921	     -9.75339725	     -2.59931511	      6.24785006
